<?xml version="1.0" encoding="UTF-8"?><!-- Created with Inkscape (http://www.inkscape.org/) --><svg xmlns:inkscape="http://www.inkscape.org/namespaces/inkscape" xmlns:sodipodi="http://sodipodi.sourceforge.net/DTD/sodipodi-0.dtd" xmlns="http://www.w3.org/2000/svg" xmlns:svg="http://www.w3.org/2000/svg" version="1.2" baseProfile="tiny-ps" xml:space="preserve" width="183.98933" height="183.98933" viewBox="0 0 183.98933 183.98933"><title>RARComputation.com logo</title><defs id="defs29"><clipPath clipPathUnits="userSpaceOnUse" id="clipPath39"><path d="m 102.519,395.539 c 0,-29.637 24.026,-53.662 53.663,-53.662 v 0 c 29.636,0 53.663,24.025 53.663,53.662 v 0 c 0,29.637 -24.027,53.663 -53.663,53.663 v 0 c -29.637,0 -53.663,-24.026 -53.663,-53.663" id="path37"></path></clipPath><clipPath clipPathUnits="userSpaceOnUse" id="clipPath363"><path d="M 0,792 H 612 V 0 H 0 Z" id="path361"></path></clipPath><clipPath clipPathUnits="userSpaceOnUse" id="clipPath371"><path d="M 102.519,449.202 H 209.845 V 341.877 H 102.519 Z" id="path369"></path></clipPath><radialGradient cx="0" cy="0" r="1" gradientUnits="userSpaceOnUse" id="radialGradient383"><stop offset="0" id="stop377" stop-opacity="1" stop-color="#ffffff"></stop><stop offset="0.80954" id="stop379" stop-opacity="1" stop-color="#f7f8f9"></stop><stop offset="1" id="stop381" stop-opacity="1" stop-color="#bdbec0"></stop></radialGradient><clipPath clipPathUnits="userSpaceOnUse" id="clipPath435"><path d="m 107.737,372.014 h 95.607 v -29.431 h -95.607 z" id="path433"></path></clipPath></defs><g id="g31" transform="matrix(1.3333333,0,0,-1.3333333,-118.76253,620.01025)"><g id="g357"><g id="g359"><g id="g365" transform="translate(2.1779,0.6392)"><g id="g367"></g><g id="g397"><g id="g395"><g id="g393"><g id="g391"><g id="g389"><g id="g387"><path d="m 209.845,395.539 c 0,-29.637 -24.026,-53.662 -53.663,-53.662 -29.637,0 -53.663,24.025 -53.663,53.662 0,29.637 24.026,53.663 53.663,53.663 29.637,0 53.663,-24.026 53.663,-53.663" id="path385" fill="url(#radialGradient383)" stroke="none"></path></g></g></g></g></g></g></g><g id="g399" transform="translate(158.0679,465.0077)"><path d="m 0,0 c -38.105,0 -68.996,-30.891 -68.996,-68.996 0,-38.106 30.891,-68.996 68.996,-68.996 38.105,0 68.996,30.89 68.996,68.996 C 68.996,-30.891 38.105,0 0,0 m 58.455,-68.996 c 0,-32.283 -26.171,-58.455 -58.455,-58.455 -32.284,0 -58.455,26.172 -58.455,58.455 0,32.284 26.171,58.455 58.455,58.455 32.284,0 58.455,-26.171 58.455,-58.455" id="path401" fill="#787764" fill-opacity="1" fill-rule="nonzero" stroke="none"></path></g><g id="g425" transform="translate(233.1582,366.8496)"></g><g id="g429"><g id="g431"></g><g id="g1355" transform="translate(1.5)"><g id="g33"><g id="g35"><g id="g41" transform="translate(119.7246,424.9575)"><path d="m 0,0 c 0,-2.065 -1.674,-3.738 -3.738,-3.738 h -4.391 c -2.064,0 -3.738,1.673 -3.738,3.738 v 0.875 c 0,2.064 1.674,3.737 3.738,3.737 h 4.391 C -1.674,4.612 0,2.939 0,0.875 Z" id="path43" fill="#07b04d" fill-opacity="1" fill-rule="nonzero" stroke="none"></path></g><g id="g45" transform="translate(132.9097,424.9575)"><path d="m 0,0 c 0,-2.065 -1.673,-3.738 -3.737,-3.738 h -4.392 c -2.065,0 -3.737,1.673 -3.737,3.738 v 0.875 c 0,2.064 1.672,3.737 3.737,3.737 h 4.392 C -1.673,4.612 0,2.939 0,0.875 Z" id="path47" fill="#07b04d" fill-opacity="1" fill-rule="nonzero" stroke="none"></path></g><g id="g49" transform="translate(146.0952,424.9575)"><path d="m 0,0 c 0,-2.065 -1.673,-3.738 -3.737,-3.738 h -4.392 c -2.064,0 -3.738,1.673 -3.738,3.738 v 0.875 c 0,2.064 1.674,3.737 3.738,3.737 h 4.392 C -1.673,4.612 0,2.939 0,0.875 Z" id="path51" fill="#7dc244" fill-opacity="1" fill-rule="nonzero" stroke="none"></path></g><g id="g53" transform="translate(146.0952,434.4575)"><path d="m 0,0 c 0,-2.065 -1.673,-3.738 -3.737,-3.738 h -4.392 c -2.064,0 -3.738,1.673 -3.738,3.738 v 0.875 c 0,2.064 1.674,3.737 3.738,3.737 h 4.392 C -1.673,4.612 0,2.939 0,0.875 Z" id="path55" fill="#7dc244" fill-opacity="1" fill-rule="nonzero" stroke="none"></path></g><g id="g57" transform="translate(185.6514,424.9575)"><path d="m 0,0 c 0,-2.065 -1.673,-3.738 -3.737,-3.738 h -4.392 c -2.064,0 -3.738,1.673 -3.738,3.738 v 0.875 c 0,2.064 1.674,3.737 3.738,3.737 h 4.392 C -1.673,4.612 0,2.939 0,0.875 Z" id="path59" fill="#b2d237" fill-opacity="1" fill-rule="nonzero" stroke="none"></path></g><g id="g61" transform="translate(185.6514,434.7075)"><path d="m 0,0 c 0,-2.065 -1.673,-3.738 -3.737,-3.738 h -4.392 c -2.064,0 -3.738,1.673 -3.738,3.738 v 0.875 c 0,2.064 1.674,3.737 3.738,3.737 h 4.392 C -1.673,4.612 0,2.939 0,0.875 Z" id="path63" fill="#b2d237" fill-opacity="1" fill-rule="nonzero" stroke="none"></path></g><g id="g65" transform="translate(198.8374,424.9575)"><path d="m 0,0 c 0,-2.065 -1.674,-3.738 -3.738,-3.738 h -4.391 c -2.064,0 -3.738,1.673 -3.738,3.738 v 0.875 c 0,2.064 1.674,3.737 3.738,3.737 h 4.391 C -1.674,4.612 0,2.939 0,0.875 Z" id="path67" fill="#8ac643" fill-opacity="1" fill-rule="nonzero" stroke="none"></path></g><g id="g69" transform="translate(119.7246,415.0684)"><path d="m 0,0 c 0,-2.065 -1.674,-3.738 -3.738,-3.738 h -4.391 c -2.064,0 -3.738,1.673 -3.738,3.738 v 0.875 c 0,2.064 1.674,3.737 3.738,3.737 h 4.391 C -1.674,4.612 0,2.939 0,0.875 Z" id="path71" fill="#07b04d" fill-opacity="1" fill-rule="nonzero" stroke="none"></path></g><g id="g73" transform="translate(132.9097,415.0684)"><path d="m 0,0 c 0,-2.065 -1.673,-3.738 -3.737,-3.738 h -4.392 c -2.065,0 -3.737,1.673 -3.737,3.738 v 0.875 c 0,2.064 1.672,3.737 3.737,3.737 h 4.392 C -1.673,4.612 0,2.939 0,0.875 Z" id="path75" fill="#07b04d" fill-opacity="1" fill-rule="nonzero" stroke="none"></path></g><g id="g77" transform="translate(146.0952,415.0684)"><path d="m 0,0 c 0,-2.065 -1.673,-3.738 -3.737,-3.738 h -4.392 c -2.064,0 -3.738,1.673 -3.738,3.738 v 0.875 c 0,2.064 1.674,3.737 3.738,3.737 h 4.392 C -1.673,4.612 0,2.939 0,0.875 Z" id="path79" fill="#7dc244" fill-opacity="1" fill-rule="nonzero" stroke="none"></path></g><g id="g81" transform="translate(185.6514,415.0684)"><path d="m 0,0 c 0,-2.065 -1.673,-3.738 -3.737,-3.738 h -4.392 c -2.064,0 -3.738,1.673 -3.738,3.738 v 0.875 c 0,2.064 1.674,3.737 3.738,3.737 h 4.392 C -1.673,4.612 0,2.939 0,0.875 Z" id="path83" fill="#b2d237" fill-opacity="1" fill-rule="nonzero" stroke="none"></path></g><g id="g85" transform="translate(198.8374,415.0684)"><path d="m 0,0 c 0,-2.065 -1.674,-3.738 -3.738,-3.738 h -4.391 c -2.064,0 -3.738,1.673 -3.738,3.738 v 0.875 c 0,2.064 1.674,3.737 3.738,3.737 h 4.391 C -1.674,4.612 0,2.939 0,0.875 Z" id="path87" fill="#8ac643" fill-opacity="1" fill-rule="nonzero" stroke="none"></path></g><g id="g89" transform="translate(119.7246,405.1792)"><path d="m 0,0 c 0,-2.065 -1.674,-3.738 -3.738,-3.738 h -4.391 c -2.064,0 -3.738,1.673 -3.738,3.738 v 0.875 c 0,2.065 1.674,3.737 3.738,3.737 h 4.391 C -1.674,4.612 0,2.94 0,0.875 Z" id="path91" fill="#07b04d" fill-opacity="1" fill-rule="nonzero" stroke="none"></path></g><g id="g93" transform="translate(132.9097,405.1792)"><path d="m 0,0 c 0,-2.065 -1.673,-3.738 -3.737,-3.738 h -4.392 c -2.065,0 -3.737,1.673 -3.737,3.738 v 0.875 c 0,2.065 1.672,3.737 3.737,3.737 h 4.392 C -1.673,4.612 0,2.94 0,0.875 Z" id="path95" fill="#07b04d" fill-opacity="1" fill-rule="nonzero" stroke="none"></path></g><g id="g97" transform="translate(146.0952,405.1792)"><path d="m 0,0 c 0,-2.065 -1.673,-3.738 -3.737,-3.738 h -4.392 c -2.064,0 -3.738,1.673 -3.738,3.738 v 0.875 c 0,2.065 1.674,3.737 3.738,3.737 h 4.392 C -1.673,4.612 0,2.94 0,0.875 Z" id="path99" fill="#7dc244" fill-opacity="1" fill-rule="nonzero" stroke="none"></path></g><g id="g101" transform="translate(159.2808,405.1792)"><path d="M 0,0 C 0,-2.065 -1.673,-3.738 -3.737,-3.738 H -8.13 c -2.064,0 -3.737,1.673 -3.737,3.738 v 0.875 c 0,2.065 1.673,3.737 3.737,3.737 h 4.393 C -1.673,4.612 0,2.94 0,0.875 Z" id="path103" fill="#7dc244" fill-opacity="1" fill-rule="nonzero" stroke="none"></path></g><g id="g105" transform="translate(159.2808,415.8457)"><path d="M 0,0 C 0,-2.065 -1.673,-3.738 -3.737,-3.738 H -8.13 c -2.064,0 -3.737,1.673 -3.737,3.738 v 0.875 c 0,2.065 1.673,3.737 3.737,3.737 h 4.393 C -1.673,4.612 0,2.94 0,0.875 Z" id="path107" fill="#7dc244" fill-opacity="1" fill-rule="nonzero" stroke="none"></path></g><g id="g109" transform="translate(159.2808,426.5122)"><path d="M 0,0 C 0,-2.065 -1.673,-3.738 -3.737,-3.738 H -8.13 c -2.064,0 -3.737,1.673 -3.737,3.738 v 0.875 c 0,2.065 1.673,3.737 3.737,3.737 h 4.393 C -1.673,4.612 0,2.94 0,0.875 Z" id="path111" fill="#7dc244" fill-opacity="1" fill-rule="nonzero" stroke="none"></path></g><g id="g113" transform="translate(159.2808,437.1787)"><path d="M 0,0 C 0,-2.065 -1.673,-3.738 -3.737,-3.738 H -8.13 c -2.064,0 -3.737,1.673 -3.737,3.738 v 0.875 c 0,2.065 1.673,3.737 3.737,3.737 h 4.393 C -1.673,4.612 0,2.94 0,0.875 Z" id="path115" fill="#7dc244" fill-opacity="1" fill-rule="nonzero" stroke="none"></path></g><g id="g117" transform="translate(159.2808,447.8452)"><path d="M 0,0 C 0,-2.065 -1.673,-3.738 -3.737,-3.738 H -8.13 c -2.064,0 -3.737,1.673 -3.737,3.738 v 0.875 c 0,2.065 1.673,3.737 3.737,3.737 h 4.393 C -1.673,4.612 0,2.94 0,0.875 Z" id="path119" fill="#7dc244" fill-opacity="1" fill-rule="nonzero" stroke="none"></path></g><g id="g121" transform="translate(172.4658,405.1792)"><path d="m 0,0 c 0,-2.065 -1.673,-3.738 -3.738,-3.738 h -4.391 c -2.064,0 -3.738,1.673 -3.738,3.738 v 0.875 c 0,2.065 1.674,3.737 3.738,3.737 h 4.391 C -1.673,4.612 0,2.94 0,0.875 Z" id="path123" fill="#b2d237" fill-opacity="1" fill-rule="nonzero" stroke="none"></path></g><g id="g125" transform="translate(172.4658,415.1792)"><path d="m 0,0 c 0,-2.065 -1.673,-3.738 -3.738,-3.738 h -4.391 c -2.064,0 -3.738,1.673 -3.738,3.738 v 0.875 c 0,2.065 1.674,3.737 3.738,3.737 h 4.391 C -1.673,4.612 0,2.94 0,0.875 Z" id="path127" fill="#b2d237" fill-opacity="1" fill-rule="nonzero" stroke="none"></path></g><g id="g129" transform="translate(172.4658,425.1792)"><path d="m 0,0 c 0,-2.065 -1.673,-3.738 -3.738,-3.738 h -4.391 c -2.064,0 -3.738,1.673 -3.738,3.738 v 0.875 c 0,2.065 1.674,3.737 3.738,3.737 h 4.391 C -1.673,4.612 0,2.94 0,0.875 Z" id="path131" fill="#b2d237" fill-opacity="1" fill-rule="nonzero" stroke="none"></path></g><g id="g133" transform="translate(172.4658,435.1792)"><path d="m 0,0 c 0,-2.065 -1.673,-3.738 -3.738,-3.738 h -4.391 c -2.064,0 -3.738,1.673 -3.738,3.738 v 0.875 c 0,2.065 1.674,3.737 3.738,3.737 h 4.391 C -1.673,4.612 0,2.94 0,0.875 Z" id="path135" fill="#b2d237" fill-opacity="1" fill-rule="nonzero" stroke="none"></path></g><g id="g137" transform="translate(172.4658,445.1792)"><path d="m 0,0 c 0,-2.065 -1.673,-3.738 -3.738,-3.738 h -4.391 c -2.064,0 -3.738,1.673 -3.738,3.738 v 0.875 c 0,2.065 1.674,3.737 3.738,3.737 h 4.391 C -1.673,4.612 0,2.94 0,0.875 Z" id="path139" fill="#b2d237" fill-opacity="1" fill-rule="nonzero" stroke="none"></path></g><g id="g141" transform="translate(185.6514,405.1792)"><path d="m 0,0 c 0,-2.065 -1.673,-3.738 -3.737,-3.738 h -4.392 c -2.064,0 -3.738,1.673 -3.738,3.738 v 0.875 c 0,2.065 1.674,3.737 3.738,3.737 h 4.392 C -1.673,4.612 0,2.94 0,0.875 Z" id="path143" fill="#b2d237" fill-opacity="1" fill-rule="nonzero" stroke="none"></path></g><g id="g145" transform="translate(198.8374,405.1792)"><path d="m 0,0 c 0,-2.065 -1.674,-3.738 -3.738,-3.738 h -4.391 c -2.064,0 -3.738,1.673 -3.738,3.738 v 0.875 c 0,2.065 1.674,3.737 3.738,3.737 h 4.391 C -1.674,4.612 0,2.94 0,0.875 Z" id="path147" fill="#8ac643" fill-opacity="1" fill-rule="nonzero" stroke="none"></path></g><g id="g149" transform="translate(119.7246,395.29)"><path d="m 0,0 c 0,-2.065 -1.674,-3.738 -3.738,-3.738 h -4.391 c -2.064,0 -3.738,1.673 -3.738,3.738 v 0.875 c 0,2.065 1.674,3.738 3.738,3.738 h 4.391 C -1.674,4.613 0,2.94 0,0.875 Z" id="path151" fill="#07b04d" fill-opacity="1" fill-rule="nonzero" stroke="none"></path></g><g id="g153" transform="translate(132.9097,395.29)"><path d="m 0,0 c 0,-2.065 -1.673,-3.738 -3.737,-3.738 h -4.392 c -2.065,0 -3.737,1.673 -3.737,3.738 v 0.875 c 0,2.065 1.672,3.738 3.737,3.738 h 4.392 C -1.673,4.613 0,2.94 0,0.875 Z" id="path155" fill="#07b04d" fill-opacity="1" fill-rule="nonzero" stroke="none"></path></g><g id="g157" transform="translate(146.0952,395.29)"><path d="m 0,0 c 0,-2.065 -1.673,-3.738 -3.737,-3.738 h -4.392 c -2.064,0 -3.738,1.673 -3.738,3.738 v 0.875 c 0,2.065 1.674,3.738 3.738,3.738 h 4.392 C -1.673,4.613 0,2.94 0,0.875 Z" id="path159" fill="#7dc244" fill-opacity="1" fill-rule="nonzero" stroke="none"></path></g><g id="g161" transform="translate(159.2808,395.29)"><path d="M 0,0 C 0,-2.065 -1.673,-3.738 -3.737,-3.738 H -8.13 c -2.064,0 -3.737,1.673 -3.737,3.738 v 0.875 c 0,2.065 1.673,3.738 3.737,3.738 h 4.393 C -1.673,4.613 0,2.94 0,0.875 Z" id="path163" fill="#7dc244" fill-opacity="1" fill-rule="nonzero" stroke="none"></path></g><g id="g165" transform="translate(172.4658,395.29)"><path d="m 0,0 c 0,-2.065 -1.673,-3.738 -3.738,-3.738 h -4.391 c -2.064,0 -3.738,1.673 -3.738,3.738 v 0.875 c 0,2.065 1.674,3.738 3.738,3.738 h 4.391 C -1.673,4.613 0,2.94 0,0.875 Z" id="path167" fill="#b2d237" fill-opacity="1" fill-rule="nonzero" stroke="none"></path></g><g id="g169" transform="translate(185.6514,395.29)"><path d="m 0,0 c 0,-2.065 -1.673,-3.738 -3.737,-3.738 h -4.392 c -2.064,0 -3.738,1.673 -3.738,3.738 v 0.875 c 0,2.065 1.674,3.738 3.738,3.738 h 4.392 C -1.673,4.613 0,2.94 0,0.875 Z" id="path171" fill="#b2d237" fill-opacity="1" fill-rule="nonzero" stroke="none"></path></g><g id="g173" transform="translate(198.8374,395.29)"><path d="m 0,0 c 0,-2.065 -1.674,-3.738 -3.738,-3.738 h -4.391 c -2.064,0 -3.738,1.673 -3.738,3.738 v 0.875 c 0,2.065 1.674,3.738 3.738,3.738 h 4.391 C -1.674,4.613 0,2.94 0,0.875 Z" id="path175" fill="#8ac643" fill-opacity="1" fill-rule="nonzero" stroke="none"></path></g><g id="g177" transform="translate(119.7246,385.4004)"><path d="m 0,0 c 0,-2.064 -1.674,-3.738 -3.738,-3.738 h -4.391 c -2.064,0 -3.738,1.674 -3.738,3.738 v 0.875 c 0,2.065 1.674,3.738 3.738,3.738 h 4.391 C -1.674,4.613 0,2.94 0,0.875 Z" id="path179" fill="#07b04d" fill-opacity="1" fill-rule="nonzero" stroke="none"></path></g><g id="g181" transform="translate(132.9097,385.4004)"><path d="m 0,0 c 0,-2.064 -1.673,-3.738 -3.737,-3.738 h -4.392 c -2.065,0 -3.737,1.674 -3.737,3.738 v 0.875 c 0,2.065 1.672,3.738 3.737,3.738 h 4.392 C -1.673,4.613 0,2.94 0,0.875 Z" id="path183" fill="#07b04d" fill-opacity="1" fill-rule="nonzero" stroke="none"></path></g><g id="g185" transform="translate(146.0952,385.4004)"><path d="m 0,0 c 0,-2.064 -1.673,-3.738 -3.737,-3.738 h -4.392 c -2.064,0 -3.738,1.674 -3.738,3.738 v 0.875 c 0,2.065 1.674,3.738 3.738,3.738 h 4.392 C -1.673,4.613 0,2.94 0,0.875 Z" id="path187" fill="#7dc244" fill-opacity="1" fill-rule="nonzero" stroke="none"></path></g><g id="g189" transform="translate(159.2808,385.4004)"><path d="M 0,0 C 0,-2.064 -1.673,-3.738 -3.737,-3.738 H -8.13 c -2.064,0 -3.737,1.674 -3.737,3.738 v 0.875 c 0,2.065 1.673,3.738 3.737,3.738 h 4.393 C -1.673,4.613 0,2.94 0,0.875 Z" id="path191" fill="#7dc244" fill-opacity="1" fill-rule="nonzero" stroke="none"></path></g><g id="g193" transform="translate(172.4658,385.4004)"><path d="m 0,0 c 0,-2.064 -1.673,-3.738 -3.738,-3.738 h -4.391 c -2.064,0 -3.738,1.674 -3.738,3.738 v 0.875 c 0,2.065 1.674,3.738 3.738,3.738 h 4.391 C -1.673,4.613 0,2.94 0,0.875 Z" id="path195" fill="#b2d237" fill-opacity="1" fill-rule="nonzero" stroke="none"></path></g><g id="g197" transform="translate(185.6514,385.4004)"><path d="m 0,0 c 0,-2.064 -1.673,-3.738 -3.737,-3.738 h -4.392 c -2.064,0 -3.738,1.674 -3.738,3.738 v 0.875 c 0,2.065 1.674,3.738 3.738,3.738 h 4.392 C -1.673,4.613 0,2.94 0,0.875 Z" id="path199" fill="#b2d237" fill-opacity="1" fill-rule="nonzero" stroke="none"></path></g><g id="g201" transform="translate(198.8374,385.4004)"><path d="m 0,0 c 0,-2.064 -1.674,-3.738 -3.738,-3.738 h -4.391 c -2.064,0 -3.738,1.674 -3.738,3.738 v 0.875 c 0,2.065 1.674,3.738 3.738,3.738 h 4.391 C -1.674,4.613 0,2.94 0,0.875 Z" id="path203" fill="#8ac643" fill-opacity="1" fill-rule="nonzero" stroke="none"></path></g><g id="g205" transform="translate(119.7246,375.5117)"><path d="m 0,0 c 0,-2.064 -1.674,-3.738 -3.738,-3.738 h -4.391 c -2.064,0 -3.738,1.674 -3.738,3.738 v 0.875 c 0,2.064 1.674,3.738 3.738,3.738 h 4.391 C -1.674,4.613 0,2.939 0,0.875 Z" id="path207" fill="#07b04d" fill-opacity="1" fill-rule="nonzero" stroke="none"></path></g><g id="g209" transform="translate(132.9097,375.5117)"><path d="m 0,0 c 0,-2.064 -1.673,-3.738 -3.737,-3.738 h -4.392 c -2.065,0 -3.737,1.674 -3.737,3.738 v 0.875 c 0,2.064 1.672,3.738 3.737,3.738 h 4.392 C -1.673,4.613 0,2.939 0,0.875 Z" id="path211" fill="#07b04d" fill-opacity="1" fill-rule="nonzero" stroke="none"></path></g><g id="g213" transform="translate(146.0952,375.5117)"><path d="m 0,0 c 0,-2.064 -1.673,-3.738 -3.737,-3.738 h -4.392 c -2.064,0 -3.738,1.674 -3.738,3.738 v 0.875 c 0,2.064 1.674,3.738 3.738,3.738 h 4.392 C -1.673,4.613 0,2.939 0,0.875 Z" id="path215" fill="#7dc244" fill-opacity="1" fill-rule="nonzero" stroke="none"></path></g><g id="g217" transform="translate(159.2808,375.5117)"><path d="M 0,0 C 0,-2.064 -1.673,-3.738 -3.737,-3.738 H -8.13 c -2.064,0 -3.737,1.674 -3.737,3.738 v 0.875 c 0,2.064 1.673,3.738 3.737,3.738 h 4.393 C -1.673,4.613 0,2.939 0,0.875 Z" id="path219" fill="#7dc244" fill-opacity="1" fill-rule="nonzero" stroke="none"></path></g><g id="g221" transform="translate(172.4658,375.5117)"><path d="m 0,0 c 0,-2.064 -1.673,-3.738 -3.738,-3.738 h -4.391 c -2.064,0 -3.738,1.674 -3.738,3.738 v 0.875 c 0,2.064 1.674,3.738 3.738,3.738 h 4.391 C -1.673,4.613 0,2.939 0,0.875 Z" id="path223" fill="#b2d237" fill-opacity="1" fill-rule="nonzero" stroke="none"></path></g><g id="g225" transform="translate(185.6514,375.5117)"><path d="m 0,0 c 0,-2.064 -1.673,-3.738 -3.737,-3.738 h -4.392 c -2.064,0 -3.738,1.674 -3.738,3.738 v 0.875 c 0,2.064 1.674,3.738 3.738,3.738 h 4.392 C -1.673,4.613 0,2.939 0,0.875 Z" id="path227" fill="#b2d237" fill-opacity="1" fill-rule="nonzero" stroke="none"></path></g><g id="g229" transform="translate(198.8374,375.5117)"><path d="m 0,0 c 0,-2.064 -1.674,-3.738 -3.738,-3.738 h -4.391 c -2.064,0 -3.738,1.674 -3.738,3.738 v 0.875 c 0,2.064 1.674,3.738 3.738,3.738 h 4.391 C -1.674,4.613 0,2.939 0,0.875 Z" id="path231" fill="#8ac643" fill-opacity="1" fill-rule="nonzero" stroke="none"></path></g><g id="g233" transform="translate(212.0229,375.5117)"><path d="m 0,0 c 0,-2.064 -1.673,-3.738 -3.738,-3.738 h -4.391 c -2.065,0 -3.738,1.674 -3.738,3.738 v 0.875 c 0,2.064 1.673,3.738 3.738,3.738 h 4.391 C -1.673,4.613 0,2.939 0,0.875 Z" id="path235" fill="#8ac643" fill-opacity="1" fill-rule="nonzero" stroke="none"></path></g><g id="g237" transform="translate(212.0229,385.8447)"><path d="m 0,0 c 0,-2.063 -1.673,-3.737 -3.738,-3.737 h -4.391 c -2.065,0 -3.738,1.674 -3.738,3.737 v 0.875 c 0,2.065 1.673,3.738 3.738,3.738 h 4.391 C -1.673,4.613 0,2.94 0,0.875 Z" id="path239" fill="#8ac643" fill-opacity="1" fill-rule="nonzero" stroke="none"></path></g><g id="g241" transform="translate(212.0229,396.1782)"><path d="m 0,0 c 0,-2.064 -1.673,-3.738 -3.738,-3.738 h -4.391 c -2.065,0 -3.738,1.674 -3.738,3.738 v 0.875 c 0,2.065 1.673,3.738 3.738,3.738 h 4.391 C -1.673,4.613 0,2.94 0,0.875 Z" id="path243" fill="#8ac643" fill-opacity="1" fill-rule="nonzero" stroke="none"></path></g><g id="g245" transform="translate(212.0229,406.5117)"><path d="m 0,0 c 0,-2.064 -1.673,-3.738 -3.738,-3.738 h -4.391 c -2.065,0 -3.738,1.674 -3.738,3.738 v 0.875 c 0,2.065 1.673,3.738 3.738,3.738 h 4.391 C -1.673,4.613 0,2.94 0,0.875 Z" id="path247" fill="#8ac643" fill-opacity="1" fill-rule="nonzero" stroke="none"></path></g><g id="g249" transform="translate(212.0229,416.8452)"><path d="m 0,0 c 0,-2.064 -1.673,-3.738 -3.738,-3.738 h -4.391 c -2.065,0 -3.738,1.674 -3.738,3.738 v 0.875 c 0,2.065 1.673,3.738 3.738,3.738 h 4.391 C -1.673,4.613 0,2.94 0,0.875 Z" id="path251" fill="#8ac643" fill-opacity="1" fill-rule="nonzero" stroke="none"></path></g><g id="g253" transform="translate(212.0229,427.1787)"><path d="m 0,0 c 0,-2.064 -1.673,-3.738 -3.738,-3.738 h -4.391 c -2.065,0 -3.738,1.674 -3.738,3.738 v 0.875 c 0,2.065 1.673,3.738 3.738,3.738 h 4.391 C -1.673,4.613 0,2.94 0,0.875 Z" id="path255" fill="#8ac643" fill-opacity="1" fill-rule="nonzero" stroke="none"></path></g><g id="g257" transform="translate(119.7246,365.6221)"><path d="m 0,0 c 0,-2.064 -1.674,-3.738 -3.738,-3.738 h -4.391 c -2.064,0 -3.738,1.674 -3.738,3.738 v 0.875 c 0,2.065 1.674,3.738 3.738,3.738 h 4.391 C -1.674,4.613 0,2.94 0,0.875 Z" id="path259" fill="#07b04d" fill-opacity="1" fill-rule="nonzero" stroke="none"></path></g><g id="g261" transform="translate(132.9097,365.6221)"><path d="m 0,0 c 0,-2.064 -1.673,-3.738 -3.737,-3.738 h -4.392 c -2.065,0 -3.737,1.674 -3.737,3.738 v 0.875 c 0,2.065 1.672,3.738 3.737,3.738 h 4.392 C -1.673,4.613 0,2.94 0,0.875 Z" id="path263" fill="#07b04d" fill-opacity="1" fill-rule="nonzero" stroke="none"></path></g><g id="g265" transform="translate(146.0952,365.6221)"><path d="m 0,0 c 0,-2.064 -1.673,-3.738 -3.737,-3.738 h -4.392 c -2.064,0 -3.738,1.674 -3.738,3.738 v 0.875 c 0,2.065 1.674,3.738 3.738,3.738 h 4.392 C -1.673,4.613 0,2.94 0,0.875 Z" id="path267" fill="#7dc244" fill-opacity="1" fill-rule="nonzero" stroke="none"></path></g><g id="g269" transform="translate(159.2808,365.6221)"><path d="M 0,0 C 0,-2.064 -1.673,-3.738 -3.737,-3.738 H -8.13 c -2.064,0 -3.737,1.674 -3.737,3.738 v 0.875 c 0,2.065 1.673,3.738 3.737,3.738 h 4.393 C -1.673,4.613 0,2.94 0,0.875 Z" id="path271" fill="#7dc244" fill-opacity="1" fill-rule="nonzero" stroke="none"></path></g><g id="g273" transform="translate(172.4658,365.6221)"><path d="m 0,0 c 0,-2.064 -1.673,-3.738 -3.738,-3.738 h -4.391 c -2.064,0 -3.738,1.674 -3.738,3.738 v 0.875 c 0,2.065 1.674,3.738 3.738,3.738 h 4.391 C -1.673,4.613 0,2.94 0,0.875 Z" id="path275" fill="#b2d237" fill-opacity="1" fill-rule="nonzero" stroke="none"></path></g><g id="g277" transform="translate(185.6514,365.6221)"><path d="m 0,0 c 0,-2.064 -1.673,-3.738 -3.737,-3.738 h -4.392 c -2.064,0 -3.738,1.674 -3.738,3.738 v 0.875 c 0,2.065 1.674,3.738 3.738,3.738 h 4.392 C -1.673,4.613 0,2.94 0,0.875 Z" id="path279" fill="#b2d237" fill-opacity="1" fill-rule="nonzero" stroke="none"></path></g><g id="g281" transform="translate(198.8374,365.6221)"><path d="m 0,0 c 0,-2.064 -1.674,-3.738 -3.738,-3.738 h -4.391 c -2.064,0 -3.738,1.674 -3.738,3.738 v 0.875 c 0,2.065 1.674,3.738 3.738,3.738 h 4.391 C -1.674,4.613 0,2.94 0,0.875 Z" id="path283" fill="#8ac643" fill-opacity="1" fill-rule="nonzero" stroke="none"></path></g><g id="g285" transform="translate(212.0229,365.6221)"><path d="m 0,0 c 0,-2.064 -1.673,-3.738 -3.738,-3.738 h -4.391 c -2.065,0 -3.738,1.674 -3.738,3.738 v 0.875 c 0,2.065 1.673,3.738 3.738,3.738 h 4.391 C -1.673,4.613 0,2.94 0,0.875 Z" id="path287" fill="#8ac643" fill-opacity="1" fill-rule="nonzero" stroke="none"></path></g><g id="g289" transform="translate(119.7246,355.7324)"><path d="m 0,0 c 0,-2.063 -1.674,-3.737 -3.738,-3.737 h -4.391 c -2.064,0 -3.738,1.674 -3.738,3.737 v 0.876 c 0,2.066 1.674,3.738 3.738,3.738 h 4.391 C -1.674,4.614 0,2.942 0,0.876 Z" id="path291" fill="#07b04d" fill-opacity="1" fill-rule="nonzero" stroke="none"></path></g><g id="g293" transform="translate(132.9097,355.7324)"><path d="m 0,0 c 0,-2.063 -1.673,-3.737 -3.737,-3.737 h -4.392 c -2.065,0 -3.737,1.674 -3.737,3.737 v 0.876 c 0,2.066 1.672,3.738 3.737,3.738 h 4.392 C -1.673,4.614 0,2.942 0,0.876 Z" id="path295" fill="#07b04d" fill-opacity="1" fill-rule="nonzero" stroke="none"></path></g><g id="g297" transform="translate(146.0952,355.7324)"><path d="m 0,0 c 0,-2.063 -1.673,-3.737 -3.737,-3.737 h -4.392 c -2.064,0 -3.738,1.674 -3.738,3.737 v 0.876 c 0,2.066 1.674,3.738 3.738,3.738 h 4.392 C -1.673,4.614 0,2.942 0,0.876 Z" id="path299" fill="#7dc244" fill-opacity="1" fill-rule="nonzero" stroke="none"></path></g><g id="g301" transform="translate(159.2808,355.7324)"><path d="M 0,0 C 0,-2.063 -1.673,-3.737 -3.737,-3.737 H -8.13 c -2.064,0 -3.737,1.674 -3.737,3.737 v 0.876 c 0,2.066 1.673,3.738 3.737,3.738 h 4.393 C -1.673,4.614 0,2.942 0,0.876 Z" id="path303" fill="#7dc244" fill-opacity="1" fill-rule="nonzero" stroke="none"></path></g><g id="g305" transform="translate(172.4658,355.7324)"><path d="m 0,0 c 0,-2.063 -1.673,-3.737 -3.738,-3.737 h -4.391 c -2.064,0 -3.738,1.674 -3.738,3.737 v 0.876 c 0,2.066 1.674,3.738 3.738,3.738 h 4.391 C -1.673,4.614 0,2.942 0,0.876 Z" id="path307" fill="#b2d237" fill-opacity="1" fill-rule="nonzero" stroke="none"></path></g><g id="g309" transform="translate(185.6514,355.7324)"><path d="m 0,0 c 0,-2.063 -1.673,-3.737 -3.737,-3.737 h -4.392 c -2.064,0 -3.738,1.674 -3.738,3.737 v 0.876 c 0,2.066 1.674,3.738 3.738,3.738 h 4.392 C -1.673,4.614 0,2.942 0,0.876 Z" id="path311" fill="#b2d237" fill-opacity="1" fill-rule="nonzero" stroke="none"></path></g><g id="g313" transform="translate(198.8374,355.7324)"><path d="m 0,0 c 0,-2.063 -1.674,-3.737 -3.738,-3.737 h -4.391 c -2.064,0 -3.738,1.674 -3.738,3.737 v 0.876 c 0,2.066 1.674,3.738 3.738,3.738 h 4.391 C -1.674,4.614 0,2.942 0,0.876 Z" id="path315" fill="#8ac643" fill-opacity="1" fill-rule="nonzero" stroke="none"></path></g><g id="g317" transform="translate(212.0229,355.7324)"><path d="m 0,0 c 0,-2.063 -1.673,-3.737 -3.738,-3.737 h -4.391 c -2.065,0 -3.738,1.674 -3.738,3.737 v 0.876 c 0,2.066 1.673,3.738 3.738,3.738 h 4.391 C -1.673,4.614 0,2.942 0,0.876 Z" id="path319" fill="#8ac643" fill-opacity="1" fill-rule="nonzero" stroke="none"></path></g><g id="g321" transform="translate(119.7246,345.8428)"><path d="m 0,0 c 0,-2.063 -1.674,-3.736 -3.738,-3.736 h -4.391 c -2.064,0 -3.738,1.673 -3.738,3.736 v 0.877 c 0,2.065 1.674,3.738 3.738,3.738 h 4.391 C -1.674,4.615 0,2.942 0,0.877 Z" id="path323" fill="#75c045" fill-opacity="1" fill-rule="nonzero" stroke="none"></path></g><g id="g325" transform="translate(132.9097,345.8428)"><path d="m 0,0 c 0,-2.063 -1.673,-3.736 -3.737,-3.736 h -4.392 c -2.065,0 -3.737,1.673 -3.737,3.736 v 0.877 c 0,2.065 1.672,3.738 3.737,3.738 h 4.392 C -1.673,4.615 0,2.942 0,0.877 Z" id="path327" fill="#07b04d" fill-opacity="1" fill-rule="nonzero" stroke="none"></path></g><g id="g329" transform="translate(146.0952,345.8428)"><path d="m 0,0 c 0,-2.063 -1.673,-3.736 -3.737,-3.736 h -4.392 c -2.064,0 -3.738,1.673 -3.738,3.736 v 0.877 c 0,2.065 1.674,3.738 3.738,3.738 h 4.392 C -1.673,4.615 0,2.942 0,0.877 Z" id="path331" fill="#7dc244" fill-opacity="1" fill-rule="nonzero" stroke="none"></path></g><g id="g333" transform="translate(159.2808,345.8428)"><path d="M 0,0 C 0,-2.063 -1.673,-3.736 -3.737,-3.736 H -8.13 c -2.064,0 -3.737,1.673 -3.737,3.736 v 0.877 c 0,2.065 1.673,3.738 3.737,3.738 h 4.393 C -1.673,4.615 0,2.942 0,0.877 Z" id="path335" fill="#7dc244" fill-opacity="1" fill-rule="nonzero" stroke="none"></path></g><g id="g337" transform="translate(172.4658,345.8428)"><path d="m 0,0 c 0,-2.063 -1.673,-3.736 -3.738,-3.736 h -4.391 c -2.064,0 -3.738,1.673 -3.738,3.736 v 0.877 c 0,2.065 1.674,3.738 3.738,3.738 h 4.391 C -1.673,4.615 0,2.942 0,0.877 Z" id="path339" fill="#b2d237" fill-opacity="1" fill-rule="nonzero" stroke="none"></path></g><g id="g341" transform="translate(185.6514,345.8428)"><path d="m 0,0 c 0,-2.063 -1.673,-3.736 -3.737,-3.736 h -4.392 c -2.064,0 -3.738,1.673 -3.738,3.736 v 0.877 c 0,2.065 1.674,3.738 3.738,3.738 h 4.392 C -1.673,4.615 0,2.942 0,0.877 Z" id="path343" fill="#b2d237" fill-opacity="1" fill-rule="nonzero" stroke="none"></path></g><g id="g345" transform="translate(198.8374,345.8428)"><path d="m 0,0 c 0,-2.063 -1.674,-3.736 -3.738,-3.736 h -4.391 c -2.064,0 -3.738,1.673 -3.738,3.736 v 0.877 c 0,2.065 1.674,3.738 3.738,3.738 h 4.391 C -1.674,4.615 0,2.942 0,0.877 Z" id="path347" fill="#8ac643" fill-opacity="1" fill-rule="nonzero" stroke="none"></path></g><g id="g349" transform="translate(212.0229,345.8428)"><path d="m 0,0 c 0,-2.063 -1.673,-3.736 -3.738,-3.736 h -4.391 c -2.065,0 -3.738,1.673 -3.738,3.736 v 0.877 c 0,2.065 1.673,3.738 3.738,3.738 h 4.391 C -1.673,4.615 0,2.942 0,0.877 Z" id="path351" fill="#8ac643" fill-opacity="1" fill-rule="nonzero" stroke="none"></path></g><g id="g353" transform="translate(212.3438,365.7148)"><path d="m 0,0 c -1.426,0 -2.608,-1.035 -2.841,-2.395 -2.086,-0.726 -4.962,-1.535 -7.004,-1.339 -3.565,0.339 0.509,3.734 1.867,5.091 0.756,0.756 2.62,2.145 4.122,3.228 0.303,-0.11 0.629,-0.171 0.971,-0.171 1.593,0 2.885,1.292 2.885,2.885 0,1.596 -1.292,2.887 -2.885,2.887 -1.594,0 -2.887,-1.291 -2.887,-2.887 0,-0.297 0.046,-0.582 0.128,-0.85 -1.937,-2.287 -6.087,-7.181 -8.615,-6.619 -2.27,0.506 0.333,4.008 1.82,5.775 0.016,-0.001 0.031,-0.003 0.048,-0.003 1.593,0 2.886,1.292 2.886,2.886 0,1.594 -1.293,2.885 -2.886,2.885 -1.594,0 -2.886,-1.291 -2.886,-2.885 0,-0.369 0.072,-0.72 0.198,-1.045 -0.776,-1.522 -1.852,-3.793 -2.065,-5.068 -0.339,-2.037 -0.679,-4.582 -1.357,-5.6 -0.68,-1.019 -5.433,-5.263 -8.149,-4.584 -2.715,0.678 -1.358,8.998 -3.734,12.731 -2.376,3.734 -3.055,7.639 -2.207,10.525 0.849,2.886 5.772,6.959 5.432,11.201 -0.34,4.246 -2.546,8.488 -3.225,11.883 -0.679,3.396 -2.376,5.093 -6.111,3.055 -3.734,-2.036 -4.169,-2.544 -7.092,-2.544 -2.922,0 -5.639,-1.188 -5.808,-4.924 -0.17,-3.733 -0.679,-5.601 -2.546,-7.128 -1.868,-1.529 -7.299,-5.092 -12.561,-6.621 -5.262,-1.527 -10.694,-2.547 -10.694,-2.547 0,0 -0.509,4.923 -0.509,6.961 0,1.763 5.346,7.729 7.439,11.059 0.121,-0.015 0.244,-0.026 0.369,-0.026 1.594,0 2.886,1.292 2.886,2.885 0,1.595 -1.292,2.887 -2.886,2.887 -1.594,0 -2.886,-1.292 -2.886,-2.887 0,-0.567 0.166,-1.096 0.45,-1.541 -1.155,-1.965 -3.25,-4.909 -4.523,-4.909 -1.528,0 -2.038,1.358 -1.189,5.433 0.441,2.116 0.653,4.598 0.754,6.495 1.052,0.431 1.792,1.464 1.792,2.67 0,1.594 -1.292,2.886 -2.885,2.886 -1.594,0 -2.887,-1.292 -2.887,-2.886 0,-1.019 0.531,-1.914 1.329,-2.427 0.04,-2.573 0.253,-5.128 -0.14,-6.568 -0.509,-1.869 0,-4.074 -1.528,-4.245 -1.166,-0.129 -3.912,4.98 -5.148,7.409 0.037,0.183 0.056,0.374 0.056,0.569 0,1.594 -1.292,2.887 -2.885,2.887 -1.594,0 -2.887,-1.293 -2.887,-2.887 0,-1.594 1.293,-2.886 2.887,-2.886 0.262,0 0.515,0.039 0.756,0.103 1.715,-2.423 4.645,-6.699 5.354,-8.589 1.019,-2.717 2.207,-3.396 2.377,-6.111 0.169,-2.717 -1.868,-13.241 3.055,-13.241 4.922,0 10.864,2.546 10.864,2.546 0,0 3.904,1.359 3.225,-1.358 -0.68,-2.715 -7.129,-6.45 -7.469,-10.184 -0.339,-3.734 0.17,-10.693 0.17,-10.693 0,0 -1.358,-2.377 -2.206,0 -0.85,2.377 -5.263,11.031 -5.263,11.031 0,0 -0.849,2.377 -2.207,2.207 -1.357,-0.168 -4.413,-10.014 -4.413,-14.598 v -4.584 c 0,0 -4.753,7.301 -4.413,9.846 0.34,2.547 1.358,3.227 2.546,4.414 0.833,0.832 2.246,2.912 3.019,4.084 1.272,0.096 2.274,1.155 2.274,2.452 0,1.361 -1.102,2.462 -2.461,2.462 -1.36,0 -2.462,-1.101 -2.462,-2.462 0,-0.444 0.12,-0.862 0.327,-1.221 -1.057,-1.645 -2.731,-3.971 -3.922,-4.297 -1.655,-0.451 -1.577,7.894 -1.892,11.572 0.336,0.471 0.535,1.046 0.535,1.67 0,1.594 -1.292,2.886 -2.886,2.886 -1.594,0 -2.886,-1.292 -2.886,-2.886 0,-1.32 0.887,-2.432 2.098,-2.774 0.296,-0.816 0.487,-1.974 0.279,-3.847 -0.51,-4.584 -0.85,-5.094 -0.85,-5.094 0,0 -1.358,-0.678 -1.867,0.68 -0.333,0.89 -2.638,3.678 -4.185,5.494 0.071,0.25 0.112,0.514 0.112,0.788 0,1.595 -1.293,2.886 -2.886,2.886 -1.594,0 -2.886,-1.291 -2.886,-2.886 0,-1.595 1.292,-2.886 2.886,-2.886 0.31,0 0.609,0.049 0.89,0.141 1.345,-1.481 3.146,-3.279 4.542,-5.232 2.546,-3.567 7.638,-8.829 8.827,-12.903 1.188,-4.074 5.6,-16.805 8.995,-16.465 3.396,0.342 3.226,17.655 3.226,17.655 0,0 5.261,-6.284 5.431,-11.543 0.171,-5.262 1.528,-10.184 7.299,-8.659 5.772,1.53 14.089,4.075 14.089,4.075 0,0 2.885,1.357 2.037,-0.34 -0.849,-1.697 -9.845,-8.486 -9.845,-8.486 0,0 -4.074,-2.887 0,-3.903 4.073,-1.019 24.103,3.053 26.819,3.053 1.815,0 7.646,-0.984 11.316,-1.637 0.343,-1.211 1.454,-2.097 2.773,-2.097 1.594,0 2.886,1.292 2.886,2.888 0,1.594 -1.292,2.885 -2.886,2.885 -0.952,0 -1.795,-0.465 -2.321,-1.178 -2.732,-0.058 -5.924,-0.301 -6.336,1.346 -0.366,1.465 3.304,4.156 5.395,5.555 0.452,-0.291 0.988,-0.463 1.564,-0.463 1.595,0 2.887,1.293 2.887,2.886 0,1.596 -1.292,2.887 -2.887,2.887 -1.593,0 -2.885,-1.291 -2.885,-2.887 0,-0.009 10e-4,-0.019 10e-4,-0.029 -2.337,-1.75 -6.973,-4.963 -7.979,-3.705 -0.663,0.83 -0.637,2.795 -0.439,4.588 1.562,0.037 2.817,1.312 2.817,2.883 0,1.594 -1.293,2.885 -2.887,2.885 -1.594,0 -2.886,-1.291 -2.886,-2.885 0,-0.803 0.327,-1.528 0.854,-2.051 -0.436,-2.898 -1.239,-7.5 -2.042,-8.305 -1.188,-1.189 -10.864,-1.189 -10.864,-1.189 l 8.827,8.998 c 0,0 3.395,3.223 1.528,5.26 -1.868,2.037 -14.598,0.679 -14.598,0.679 0,0 9.506,7.299 10.015,13.411 0.509,6.109 1.357,7.128 1.357,7.128 0,0 0.68,0.678 1.189,-0.849 0.509,-1.526 4.583,-11.033 4.583,-11.033 0,0 0.34,-2.375 5.261,-1.188 4.924,1.188 11.543,5.264 11.543,5.264 L -2.063,-4.9 c 0.524,-0.538 1.254,-0.871 2.063,-0.871 1.594,0 2.886,1.291 2.886,2.884 C 2.886,-1.291 1.594,0 0,0" id="path355" fill="#ffffff" fill-opacity="1" fill-rule="nonzero" stroke="none"></path></g></g></g><g id="g443"><g id="g441"><g transform="translate(203.3442,371.6621)" id="g439"><path d="m 0,0 c -8.917,-17.272 -26.936,-29.079 -47.713,-29.079 -20.918,0 -39.041,11.969 -47.894,29.431 z" id="path437" fill="#ffffff" fill-opacity="1" fill-rule="nonzero" stroke="none"></path></g></g></g></g></g></g></g></g></svg>